# xmcd
# 
# Track frame offsets:
#     150
#     15845
#     29275
#     43553
#     62105
#     72197
#     84200
#     96985
#     110606
#     134297
#     147531
#     164414
#     180731
#     194275
#     214673
#     228367
#     236725
#     250634
#     261667
#     273303
#     287779
#     300622
#     315199
#     327646
#     342986
# 
# Disc length: 4692
# 
# Revision: 1
# Processed by: cddbd v1.5.2PL0 Copyright (c) Steve Scherf et al.
# Submitted via: fre:ac v1.0.17
# 
DISCID=6d125219
DTITLE=omnibus - Best Jazz Vocal 100 2 A Taste Of Love_Disc4
DYEAR=0
DGENRE=Jazz
TTITLE0=SENTIMENTAL JOURNEY/ Dinah Shore
TTITLE1=AUTUMN LEAVES/ Lou Rawls
TTITLE2=DAYS OF WINE AND ROSES/ Peggy Lee
TTITLE3=WHAT`S NEW/ Nancy Wilson
TTITLE4=BUT NOT FOR ME/ Diahann Carroll
TTITLE5=DON`T EXPLAIN/ June Christy
TTITLE6=IF I SHOULD LOSE YOU/ Dick Haymes
TTITLE7=SMOKE GETS IN YOUR EYES/ Anna Maria Alberghetti
TTITLE8=WINDMILLS OF YOUR MIND/ Dianne Reeves
TTITLE9=HOW INSENSITIVE/ Eliane Elias
TTITLE10=I`M A FOOL TO WANT YOU/ The Four Freshmen
TTITLE11=I CAN`T GET STARTED/ Ella Mae Morse
TTITLE12=BLACK COFFEE/ Julie London
TTITLE13=I WILL WAIT FOR YOU/ Holly Cole
TTITLE14=LITTLE GIRL BLUE/ Johnny Hartman
TTITLE15=THERE WILL NEVER BE ANOTHER YOU/ Anne Phillips
TTITLE16=IT`S EASY TO REMEMBER/ Sue Raney
TTITLE17=EV`RY TIME WE SAY GOODBYE/ Sarah Vaughan
TTITLE18=YESTERDAYS/ Jeri Southern
TTITLE19=THESE FOOLISH THINGS/ Bob Manning
TTITLE20=GONE WITH THE WIND/ June Hutton
TTITLE21=FOR ALL WE KNOW/ Dinah Washington
TTITLE22=I`LL REMEMBER APRIL/ Jane Fielding
TTITLE23=YOU DON`T KNOW WHAT LOVE IS/ Monica Lewis
TTITLE24=THE WAY WE WERE/ Bing Crosby
EXTD=
EXTT0=
EXTT1=
EXTT2=
EXTT3=
EXTT4=
EXTT5=
EXTT6=
EXTT7=
EXTT8=
EXTT9=
EXTT10=
EXTT11=
EXTT12=
EXTT13=
EXTT14=
EXTT15=
EXTT16=
EXTT17=
EXTT18=
EXTT19=
EXTT20=
EXTT21=
EXTT22=
EXTT23=
EXTT24=
PLAYORDER=
